<?xml version="1.0" standalone="no"?>
<!DOCTYPE svg PUBLIC "-//W3C//DTD SVG 20010904//EN"
 "http://www.w3.org/TR/2001/REC-SVG-20010904/DTD/svg10.dtd">
<svg version="1.0" xmlns="http://www.w3.org/2000/svg"
 width="2000.000000pt" height="2000.000000pt" viewBox="0 0 2000.000000 2000.000000"
 preserveAspectRatio="xMidYMid meet">

<g transform="translate(0.000000,2000.000000) scale(0.100000,-0.100000)"
fill="#000000" stroke="none">
<path d="M7890 16945 c-113 -31 -253 -117 -290 -178 -29 -47 -26 -106 8 -150
55 -72 130 -76 227 -10 33 23 82 48 108 57 55 18 149 21 211 5 58 -14 134 -74
171 -133 28 -46 30 -56 29 -140 0 -74 -4 -100 -23 -139 -48 -98 -161 -157
-303 -157 -74 0 -108 -12 -147 -54 -22 -23 -26 -40 -34 -145 -12 -144 -6 -180
36 -225 56 -59 130 -61 193 -3 33 30 36 39 45 111 4 43 10 80 11 81 4 4 97 24
133 30 44 7 166 72 218 117 105 89 163 247 154 418 -12 234 -153 418 -383 502
-78 28 -281 35 -364 13z"/>
<path d="M6383 16785 c-78 -17 -185 -64 -176 -78 3 -5 1 -7 -5 -3 -14 8 -74
-43 -65 -56 3 -6 1 -8 -5 -5 -15 10 -88 -77 -107 -128 -16 -40 -16 -46 -1 -77
21 -43 63 -68 114 -68 42 0 69 20 133 96 46 56 113 87 198 92 68 3 82 1 131
-25 71 -36 108 -88 122 -174 13 -77 2 -128 -39 -182 -30 -39 -114 -89 -180
-106 -56 -15 -93 -60 -93 -112 0 -22 10 -78 21 -125 27 -107 59 -144 122 -144
95 0 143 71 114 169 l-15 51 67 37 c36 20 92 63 124 95 76 75 109 147 115 250
14 241 -140 444 -375 493 -82 18 -119 18 -200 0z"/>
<path d="M9441 16008 c-70 -26 -98 -117 -56 -181 25 -39 48 -49 136 -58 127
-12 211 -62 267 -158 36 -61 38 -174 5 -237 -21 -39 -81 -96 -129 -122 -76
-41 -185 -19 -289 58 -98 73 -153 67 -228 -22 -19 -24 -50 -59 -66 -78 -66
-74 -57 -166 20 -206 60 -30 123 -12 172 50 15 20 33 36 38 36 6 0 39 -13 74
-30 208 -99 393 -69 543 89 106 112 155 261 133 409 -37 246 -254 442 -508
457 -50 3 -90 1 -112 -7z"/>
<path d="M6585 15595 c-66 -24 -85 -66 -66 -149 17 -72 52 -106 110 -106 65 1
124 30 141 70 11 26 11 44 2 89 -21 100 -84 132 -187 96z"/>
<path d="M7910 15521 c-68 -21 -100 -72 -100 -162 0 -111 42 -152 155 -153
117 -1 155 39 156 164 1 79 -13 110 -59 133 -34 18 -119 28 -152 18z"/>
<path d="M3514 15158 c-46 -22 -55 -85 -18 -122 57 -58 150 5 123 82 -9 28
-45 53 -72 51 -7 0 -22 -5 -33 -11z"/>
<path d="M8885 14980 c-27 -10 -93 -84 -106 -117 -15 -39 6 -87 58 -133 39
-34 53 -40 90 -40 40 0 49 5 93 51 81 85 76 144 -19 216 -43 33 -76 40 -116
23z"/>
<path d="M6380 14789 c-131 -34 -286 -142 -371 -258 l-25 -34 -49 37 c-143
110 -330 145 -519 96 -112 -28 -170 -63 -266 -160 -143 -143 -253 -364 -329
-656 -10 -39 -15 -43 -58 -54 -72 -18 -181 -72 -250 -124 -235 -178 -385 -491
-443 -921 -6 -44 -13 -172 -17 -285 -27 -928 261 -1638 812 -2003 144 -95 280
-158 424 -198 42 -11 85 -23 95 -26 12 -3 -4 22 -43 68 -161 190 -290 436
-351 667 -8 32 -15 42 -26 38 -37 -14 -147 -18 -210 -7 -147 26 -260 110 -305
229 -43 116 -25 297 46 447 84 177 210 221 390 135 207 -99 447 -44 639 147
78 77 158 192 183 264 17 47 19 49 49 43 38 -7 196 11 279 32 113 29 222 90
300 168 39 39 78 81 86 94 l14 23 77 -36 c150 -69 363 -110 498 -95 88 10 114
17 192 52 l67 31 57 -52 c104 -95 250 -169 429 -216 79 -21 133 -28 252 -32
l151 -6 7 -146 c21 -413 -34 -906 -141 -1258 -19 -62 -34 -115 -34 -119 0 -11
85 61 151 128 217 221 354 564 389 973 6 72 10 171 8 220 l-3 90 52 100 c152
298 150 543 -6 676 l-40 35 11 44 c7 25 12 124 12 220 1 154 -2 185 -22 254
-49 169 -147 315 -272 404 -64 46 -78 61 -96 106 -85 212 -209 335 -404 402
-44 15 -85 19 -200 19 -80 0 -167 -3 -195 -8 l-50 -7 -45 71 c-59 93 -204 231
-304 288 -196 112 -413 148 -596 100z"/>
<path d="M15250 13702 l0 -432 430 0 c237 0 430 1 430 3 0 1 -193 196 -430
432 l-430 429 0 -432z"/>
<path d="M14326 13624 c-31 -30 -18 -56 65 -140 l82 -82 -81 -84 c-84 -85 -96
-112 -66 -142 29 -30 55 -18 140 66 l85 82 82 -82 c86 -85 111 -97 140 -64 29
32 19 55 -65 139 l-83 83 83 83 c85 86 97 111 64 140 -32 29 -55 19 -139 -65
l-83 -83 -83 83 c-85 84 -111 97 -141 66z"/>
<path d="M2240 13348 c-27 -30 -26 -73 5 -103 30 -30 64 -32 99 -4 33 26 36
79 6 109 -27 27 -83 27 -110 -2z"/>
<path d="M13955 12666 c-51 -22 -60 -53 -60 -200 0 -147 8 -173 65 -196 43
-18 97 -3 124 33 19 25 21 43 22 155 2 144 -6 176 -50 203 -36 22 -59 23 -101
5z"/>
<path d="M15041 12667 c-54 -27 -63 -55 -65 -189 -1 -139 10 -180 55 -203 64
-33 130 -5 149 63 15 56 13 236 -4 277 -14 34 -59 65 -93 65 -10 0 -29 -6 -42
-13z"/>
<path d="M6190 12161 c-180 -58 -300 -192 -254 -283 15 -29 70 -52 100 -42 10
3 55 21 99 40 44 18 125 42 180 53 90 18 103 24 133 55 23 26 32 45 32 69 0
46 -38 99 -80 114 -51 17 -147 15 -210 -6z"/>
<path d="M7354 12080 c-45 -18 -67 -77 -44 -120 6 -11 42 -40 81 -65 39 -25
95 -69 124 -96 68 -64 107 -73 153 -34 43 36 43 83 3 147 -64 101 -245 197
-317 168z"/>
<path d="M14490 11913 c-57 -9 -152 -45 -208 -78 -118 -69 -197 -174 -159
-212 18 -18 37 -10 114 53 100 82 188 115 306 116 119 1 211 -34 314 -117 66
-54 107 -58 132 -14 34 60 -21 125 -164 194 -117 57 -227 76 -335 58z"/>
<path d="M6264 11681 c-83 -38 -109 -99 -109 -261 0 -126 12 -162 67 -203 40
-30 124 -34 164 -8 88 55 138 209 110 338 -7 29 -10 31 -32 23 -53 -21 -101
25 -90 85 5 25 3 34 -10 39 -27 10 -57 6 -100 -13z"/>
<path d="M4693 11635 c-42 -18 -73 -50 -73 -75 0 -31 27 -35 70 -11 48 27 90
27 123 1 27 -21 48 -76 42 -107 -2 -10 -7 -35 -10 -55 -5 -35 -9 -38 -38 -38
-67 0 -137 -71 -137 -138 0 -96 88 -175 164 -146 29 11 18 42 -23 65 -46 26
-64 59 -51 93 11 29 40 40 97 37 49 -2 57 8 68 83 23 162 -5 243 -100 287 -47
22 -88 23 -132 4z"/>
<path d="M7336 11570 c-42 -13 -83 -56 -103 -108 -24 -64 -24 -244 -1 -289 50
-90 166 -110 238 -40 18 17 42 52 53 77 22 49 34 166 23 224 -6 34 -7 34 -37
24 -26 -9 -35 -7 -57 9 -22 16 -27 29 -28 64 0 41 -2 44 -30 46 -16 1 -42 -2
-58 -7z"/>
<path d="M6815 11356 c-16 -12 -20 -29 -23 -94 -4 -87 12 -157 53 -222 50 -81
50 -76 0 -122 -67 -61 -59 -124 13 -97 55 21 112 93 112 141 0 13 -20 57 -45
98 -53 90 -70 151 -60 226 9 74 -10 100 -50 70z"/>
<path d="M13327 11257 c-16 -11 -17 -32 -15 -202 l3 -190 27 -3 c34 -4 37 7
41 155 l2 112 95 -122 c124 -159 126 -160 150 -147 19 10 20 22 20 204 0 170
-2 195 -16 200 -35 14 -43 -11 -46 -145 l-3 -129 -100 126 c-133 170 -127 164
-158 141z"/>
<path d="M13832 11249 c-147 -73 -139 -311 12 -383 64 -30 159 -14 215 37 77
71 81 227 8 305 -58 63 -157 79 -235 41z m149 -65 c40 -20 72 -91 65 -140 -14
-86 -66 -131 -140 -121 -105 14 -142 163 -61 244 38 38 85 44 136 17z"/>
<path d="M14371 11261 c-12 -8 -14 -45 -12 -203 1 -106 4 -194 5 -195 1 -2 50
-4 107 -5 108 -2 131 4 177 46 32 29 41 46 52 108 21 111 -33 224 -118 248
-46 12 -192 13 -211 1z m208 -77 c71 -50 66 -210 -8 -248 -17 -9 -55 -16 -86
-16 l-55 0 0 140 0 140 63 0 c42 0 70 -5 86 -16z"/>
<path d="M14892 11257 c-6 -7 -45 -96 -87 -197 -67 -161 -74 -185 -61 -198 22
-22 42 -9 65 42 l20 46 86 0 86 0 19 -45 c22 -51 44 -65 67 -42 15 14 9 32
-57 191 -40 97 -79 185 -87 196 -16 23 -36 26 -51 7z m73 -226 c6 -20 3 -21
-49 -21 -31 0 -56 4 -56 9 0 5 12 38 27 72 l27 61 22 -50 c12 -28 25 -60 29
-71z"/>
<path d="M15106 11254 c-33 -32 -9 -54 61 -54 l53 0 2 -167 3 -168 29 -3 c16
-2 32 2 37 10 5 7 9 84 9 171 l0 157 55 0 c43 0 56 4 65 19 7 15 6 23 -6 35
-23 23 -285 23 -308 0z"/>
<path d="M15576 11262 c-16 -27 -156 -369 -156 -383 0 -21 28 -33 45 -19 6 5
20 28 30 50 l18 40 87 0 87 0 17 -44 c9 -24 24 -47 33 -50 19 -8 43 11 43 33
-1 9 -35 97 -78 196 -63 147 -81 181 -99 183 -11 2 -24 -1 -27 -6z m52 -179
c12 -28 22 -56 22 -61 0 -4 -24 -8 -52 -8 -29 1 -52 4 -51 9 7 33 49 125 54
119 3 -4 15 -30 27 -59z"/>
<path d="M6661 10605 c-74 -21 -136 -64 -136 -95 0 -33 22 -36 112 -15 100 24
207 17 290 -18 92 -40 133 -33 133 20 0 86 -244 151 -399 108z"/>
<path d="M5533 10052 c-3 -9 -26 -66 -50 -126 -52 -128 -63 -109 112 -196 232
-115 437 -168 696 -177 191 -7 341 6 507 43 130 29 323 93 391 130 25 14 39
23 31 20 -228 -73 -270 -80 -470 -80 -411 0 -802 117 -1108 331 -86 61 -104
70 -109 55z"/>
<path d="M5275 9653 c-1031 -256 -1843 -591 -2106 -870 -310 -329 -603 -1187
-793 -2328 -60 -358 -105 -750 -87 -767 8 -9 150 -78 284 -138 l97 -44 0 -48
0 -48 158 0 c392 0 950 87 1419 220 76 22 138 38 139 37 1 -1 4 -90 8 -197 9
-276 37 -455 90 -562 12 -27 21 -48 19 -48 -8 0 -125 62 -169 90 -55 35 -64
36 -64 13 0 -27 84 -99 157 -135 60 -29 78 -33 153 -34 47 -1 117 -9 155 -19
141 -34 644 -133 1395 -275 252 -47 866 -156 1130 -199 273 -45 413 -60 573
-61 342 -1 641 -93 885 -272 33 -25 52 -34 52 -25 0 14 -94 1067 -104 1172
-19 188 -37 398 -34 401 2 2 53 -6 113 -17 109 -19 237 -39 390 -59 233 -30
697 -51 762 -34 18 5 21 11 16 34 -5 25 0 32 48 63 30 19 64 45 76 59 l23 24
-39 194 c-51 259 -178 825 -252 1130 -222 912 -415 1488 -579 1731 -126 184
-595 389 -1450 633 -140 40 -305 85 -366 100 l-111 28 -50 -31 c-120 -74 -310
-150 -448 -180 -209 -45 -451 -33 -671 33 -246 74 -507 222 -695 394 -31 29
-58 52 -60 51 -2 -1 -31 -8 -64 -16z"/>
<path d="M11855 6874 c-44 -22 -70 -50 -88 -92 -9 -20 -42 -156 -72 -302 -59
-280 -252 -1182 -386 -1810 -120 -559 -224 -1047 -279 -1303 -26 -126 -51
-232 -55 -235 -12 -13 -1585 -15 -1600 -2 -7 6 -49 84 -93 173 -89 180 -157
288 -259 409 -62 73 -202 198 -223 198 -4 0 -15 3 -24 6 -11 4 -16 0 -16 -13
0 -10 40 -58 91 -108 105 -103 187 -209 266 -344 53 -90 153 -299 153 -321 0
-6 -50 -10 -133 -10 l-132 0 -34 58 c-70 118 -191 251 -261 287 -57 29 -56 3
2 -64 79 -93 144 -180 173 -233 l26 -48 -150 0 -150 0 -41 60 c-40 60 -116
140 -132 140 -25 0 -15 -38 24 -102 25 -40 48 -79 52 -85 6 -10 -22 -13 -123
-13 l-130 0 -17 33 c-50 99 -111 101 -70 2 l15 -35 -303 0 c-298 0 -305 0
-369 24 -85 33 -198 54 -327 61 -184 11 -1900 12 -2285 2 -203 -6 -487 -10
-630 -11 -254 -1 -328 6 -516 46 -11 2 -19 -49 -39 -249 l-24 -253 -1126 -2
c-1049 -3 -1127 -4 -1157 -20 -133 -73 -121 -279 20 -333 38 -14 808 -15 8588
-13 l8545 3 43 28 c110 73 106 238 -7 305 l-47 27 -670 5 c-368 3 -663 6 -654
8 24 3 95 68 108 99 6 15 61 262 121 548 61 286 140 657 176 825 36 168 94
442 130 610 93 440 159 747 284 1333 60 285 110 535 110 555 0 41 -40 118 -58
115 -7 -2 -11 2 -9 8 1 6 -14 19 -33 30 -34 19 -100 19 -3105 19 -2762 0
-3073 -2 -3100 -16z m2866 -1564 c211 -71 349 -265 349 -489 -1 -105 -12 -156
-53 -241 -37 -76 -140 -186 -207 -220 -219 -111 -461 -79 -624 84 -197 197
-210 501 -30 712 24 28 40 55 36 59 -4 5 -2 5 4 2 6 -4 26 5 45 19 19 14 54
36 79 48 39 20 67 29 155 50 43 10 184 -4 246 -24z"/>
<path d="M9875 4718 c18 -85 110 -185 197 -214 95 -31 129 0 46 42 -86 43
-134 83 -178 145 -47 67 -76 79 -65 27z"/>
</g>
</svg>
